{"title":"Miss Peregrine's Home for Peculiar Children 2016 Movies HD Cam X","uid":15935178,"size":739933415,"categoryP":"video","categoryS":"movies","magnet":"?xt=urn:btih:bbb864164f7bf9c345d6c5b8cf5141f63ded0fd1&amp;dn=Miss+Peregrine%27s+Home+for+Peculiar+Children+2016+Movies+HD+Cam+X&amp;tr=udp%3A%2F%2Ftracker.leechers-paradise.org%3A6969&amp;tr=udp%3A%2F%2Fzer0day.ch%3A1337&amp;tr=udp%3A%2F%2Fopen.demonii.com%3A1337&amp;tr=udp%3A%2F%2Ftracker.coppersurfer.tk%3A6969&amp;tr=udp%3A%2F%2Fexodus.desync.com%3A6969","seeders":30,"leechers":17,"uploader":"basicssom","files":2,"time":1475386643,"description":"----------------------------------------------------------------\r\nMiss Peregrine's Home for Peculiar Children 2016 Movies HD Cam XviD AAC New with Sample ☻rDX☻\r\n\r\nSCREEN SHOTS &amp; POSTER:\r\n  \nhttp://postimage.co.nr/2016/10/free/index.htm  \nhttp://postimage.co.nr/2016/10/free/1.html  \nhttp://postimage.co.nr/2016/10/free/2.html  \nhttp://postimage.co.nr/2016/10/free/3.html  \nhttp://postimage.co.nr/2016/10/free/4.html  \nhttp://postimage.co.nr/2016/10/free/5.html  \nhttp://postimage.co.nr/2016/10/free/6.html  \nhttp://postimage.co.nr/2016/10/free/7.html  \nhttp://postimage.co.nr/2016/10/free/8.html  \nhttp://postimage.co.nr/2016/10/free/9.html  \nhttp://postimage.co.nr/2016/10/free/10.html\r\n\r\nFormat                                   : Matroska\r\nFormat version                           : Version 4 / Version 2\r\nFile size                                : 698 MiB\r\nDuration                                 : 2 h 0 min\r\nOverall bit rate mode                    : Constant\r\nOverall bit rate                         : 811 kb/s\r\nMovie name                               : Miss Peregrine's Home for Peculiar Children 2016 Movies HD Cam XviD AAC New ☻rDX☻\r\n\r\nVideo\r\nID                                       : 2\r\nFormat                                   : AVC\r\nFormat/Info                              : Advanced Video Codec\r\nFormat profile                           :   \r\nFormat settings, CABAC                   : Yes\r\nFormat settings, ReFrames                : 2 frames\r\nFormat settings, GOP                     : M=1, N=12\r\nCodec ID                                 : V_MPEG4/ISO/AVC\r\nDuration                                 : 2 h 0 min\r\nBit rate mode                            : Constant\r\nBit rate                                 : 620 kb/s\r\nWidth                                    : 640 pixels\r\nHeight                                   : 272 pixels\r\nDisplay aspect ratio                     : 2.35:1\r\nFrame rate mode                          : Constant\r\nFrame rate                               : 29.970 (29970/1000) FPS\r\nColor space                              : YUV\r\nChroma subsampling                       : 4:2:0\r\nBit depth                                : 8 bits\r\nScan type                                : Progressive\r\nBits/(Pixel*Frame)                       : 0.119\r\nStream size                              : 519 MiB (74%)\r\nTitle                                    : ☻rDX☻\r\nDefault                                  : Yes\r\nForced                                   : No\r\n\r\nAudio\r\nID                                       : 1\r\nFormat                                   : AC-3\r\nFormat/Info                              : Audio Coding 3\r\nMode extension                           : CM (complete main)\r\nFormat settings, Endianness              : Big\r\nCodec ID                                 : A_AC3\r\nDuration                                 : 2 h 0 min\r\nBit rate mode                            : Constant\r\nBit rate                                 : 192 kb/s\r\nChannel(s)                               : 2 channels\r\nChannel positions                        : Front: L R\r\nSampling rate                            : 48.0 kHz\r\nFrame rate                               : 31.250 FPS (1536 spf)\r\nCompression mode                         : Lossy\r\nStream size                              : 165 MiB (24%)\r\nTitle                                    : ☻rDX☻\r\nDefault                                  : Yes\r\nForced                                   : No\r\n\r\nIMDB \nhttp://www.imdb.com/title/tt1935859/","torrent":{"xt":"urn:btih:bbb864164f7bf9c345d6c5b8cf5141f63ded0fd1","amp;dn":"Miss+Peregrine%27s+Home+for+Peculiar+Children+2016+Movies+HD+Cam+X","amp;tr":["udp%3A%2F%2Ftracker.leechers-paradise.org%3A6969","udp%3A%2F%2Fzer0day.ch%3A1337","udp%3A%2F%2Fopen.demonii.com%3A1337","udp%3A%2F%2Ftracker.coppersurfer.tk%3A6969","udp%3A%2F%2Fexodus.desync.com%3A6969"],"infoHash":"bbb864164f7bf9c345d6c5b8cf5141f63ded0fd1","infoHashBuffer":{"type":"Buffer","data":[187,184,100,22,79,123,249,195,69,214,197,184,207,81,65,246,61,237,15,209]},"announce":[],"urlList":[]}}